<svg xmlns="http://www.w3.org/2000/svg" xmlns:xlink="http://www.w3.org/1999/xlink" version="1.1" width="96" height="96" viewBox="0 0 96 96">
<path d="M85.5 95c-1.1 0-2-0.896-2-2 0-8.084-6.58-14.664-14.668-14.664-1.104 0-2-0.896-2-2s0.896-2 2-2c10.292 0 18.668 8.372 18.668 18.664 0 1.104-0.9 2-2 2z" fill="#000000"/>
	<path d="M10.5 95c-1.104 0-2-0.896-2-2 0-10.292 8.372-18.664 18.668-18.664 1.104 0 2 0.896 2 2s-0.896 2-2 2c-8.084 0-14.668 6.58-14.668 14.664 0 1.104-0.896 2-2 2z" fill="#000000"/>
	<path d="M48.104 78.336c-11.128 0-22.428-14.488-23.368-25.696-3.2-1.528-7.236-6.012-7.236-8.6v-4.688c0-1.588 0-5.508 4-6.468v-11.884c0-1.104 0.896-2 2-2s2 0.896 2 2v13.664c0 1.104-0.896 2-2 2-1.94 0-2 0.42-2 2.688v4.688c0.232 1.204 3.964 4.916 5.248 5.136 1.104 0 1.928 0.896 1.928 1.996 0 9.356 10.236 23.164 19.428 23.164 9.064 0 18.78-13.584 18.78-23.164 0-1.1 0.892-2 2-2 1.152-0.252 4.448-3.884 4.62-5.176v-4.644c0-2.252-0.060-2.688-2-2.688-1.104 0-2-0.896-2-2v-13.664c0-1.104 0.896-2 2-2s2 0.896 2 2v11.884c4 0.96 4 4.876 4 6.468v4.688c0 2.444-3.576 7.012-6.676 8.584-0.876 11.412-11.684 25.712-22.724 25.712z" fill="#000000"/>
	<path d="M73.5 21h-52c-0.92 0-1.724-0.628-1.944-1.524l-2.732-11.164c-0.212-0.868 0.172-1.764 0.944-2.212l8.4-4.836c0.304-0.172 0.648-0.264 1-0.264h41.668c0.348 0 0.696 0.092 1 0.264l8.4 4.836c0.828 0.476 1.204 1.456 0.904 2.368l-3.732 11.164c-0.284 0.816-1.048 1.368-1.908 1.368zM23.072 17h48.992l2.756-8.252-6.52-3.752h-40.6l-6.636 3.824 2.008 8.18z" fill="#000000"/>
	<path d="M48 90.836c-0.356 0-0.712-0.092-1.028-0.284l-20.832-12.5c-0.948-0.568-1.252-1.792-0.684-2.744 0.568-0.948 1.792-1.26 2.744-0.688l19.804 11.884 19.804-11.884c0.948-0.584 2.176-0.26 2.748 0.688 0.564 0.936 0.256 2.176-0.688 2.744l-20.832 12.5c-0.324 0.192-0.68 0.284-1.036 0.284z" fill="#000000"/>
	<path d="M47.5 31c-9.596 0-25.832-1.684-25.832-8 0-1.104 0.896-2 2-2s2 0.896 2 2c0.676 1.348 8.58 4 21.832 4s21.16-2.652 21.856-4.136c0-1.104 0.888-1.932 1.988-1.932s1.988 0.964 1.988 2.080c0 6.304-16.24 7.988-25.832 7.988z" fill="#000000"/>
</svg>